<svg width="180" height="180" viewBox="0 0 180 180" fill="none" xmlns="http://www.w3.org/2000/svg">
<g clip-path="url(#clip0_1324_1498)">
<path d="M68.7606 137.672L69.1498 137.727L69.2672 137.832L69.4402 138.098V138.308L69.6193 139.259L69.8973 140.168L70.1073 140.724L70.5707 141.903L70.8486 142.564L71.4417 143.93L71.7753 144.646L73.1776 147.581L73.9189 148.958L74.6541 150.311L75.0124 150.917L75.7104 152.078L76.0317 152.56L77.3042 154.32L78.2618 155.537L78.7869 156.155L80.9861 158.639L82.1537 159.806L84.5073 162.067L85.6317 163L86.7374 163.896L87.2564 164.279L88.2633 164.983L88.7205 165.255L90.932 166.558L95.9668 162.58L97.9498 160.961L99.1359 159.942L99.6239 159.503L100.52 158.67L100.816 158.361L101.304 157.817L101.347 157.693L101.873 157.057L102.392 156.847H102.713L103.386 156.921L103.757 157.063L104.504 157.422L104.881 157.706L105.431 158.28L105.474 158.7L105.295 159.009L105.073 159.343L104.9 159.547L104.517 159.985L103.689 160.832L103.331 161.178L102.564 161.925L102.101 162.37L100.291 164.032L98.9506 165.193L98.2649 165.755L96.9058 166.861L96.2757 167.343L95.0649 168.245L94.5707 168.578L93.5884 169.233L93.1375 169.517L92.2602 170.067L91.8957 170.29L91.21 170.685L90.9753 170.809L90.5737 171H90.512L89.9436 170.716L89.227 170.271L88.7452 169.944L87.695 169.233L87.0834 168.801L85.8232 167.905L85.1498 167.411L82.2154 165.119L80.3745 163.531L79.5097 162.71L77.817 161.042L77.0201 160.177L75.4695 158.422L74.7405 157.514L73.3259 155.667L72.671 154.71L71.3923 152.77L70.7992 151.757L69.6502 149.712L69.1251 148.656L68.0996 146.506L67.6363 145.388L66.9012 143.584L66.512 142.564L66.3637 142.144L66.0981 141.341L66.0116 141.014L65.8695 140.402L65.8448 140.149L65.8263 139.686L65.8571 139.494L65.956 139.148L66.0486 139L66.5243 138.493L66.9259 138.283L67.9699 137.82L68.5444 137.666M84.8842 163.587L84.4456 163.766L84.2664 164.032V164.205L84.3344 164.526L84.4456 164.643L84.7112 164.822H84.8842L85.3228 164.643L85.5019 164.371V164.205L85.3228 163.766L85.051 163.587M45.5513 119.868L46.0888 119.93L46.4656 120.029L47.6826 120.368L48.2386 120.56L48.2818 120.603L48.2942 120.931L48.2448 121.381L48.1954 121.697L48.0903 122.388L48.0162 122.796L47.8556 123.642L47.7629 124.106L47.4232 126.256L47.2564 127.862L47.2008 128.727L47.0587 132.328L47.0896 134.175L47.2378 137.857L47.4108 139.519L47.6085 141.131L47.7259 141.854L47.9915 143.238L48.1459 143.819L48.9429 146.957L49.1405 147.822L49.2085 148.149L49.3197 148.724L49.332 148.866L49.6039 149.836L49.9189 150.49L50.1042 150.719L50.444 151.219L50.7158 151.695L50.8641 151.979L51.4757 153.221L51.7351 153.857L52.3405 155.161L52.7236 155.704L52.983 155.853L53.5637 156.081L54.0023 156.124L54.9907 156.174H55.7197L57.2764 156.075L58.5614 155.92L59.2718 155.809L62.2432 155.278L63.5776 154.938L65.4618 154.469L66.5737 154.209L67.0247 154.11L67.8402 153.937L68.1058 153.894L68.5135 153.832L68.532 153.857L68.8347 154.382L69.1869 155.031L69.3907 155.42L69.7243 156.217L69.7552 156.6L69.6502 156.761L69.3413 157.076L69.0324 157.236L68.3158 157.582L67.7722 157.811L66.4934 158.262L65.3876 158.589L64.7513 158.75L62.0641 159.398L60.7915 159.627L57.993 160.09L56.8069 160.226L55.6579 160.344L55.1452 160.381L54.1506 160.436L53.712 160.442L52.8718 160.43L52.5135 160.405L51.8402 160.331L51.5622 160.276L51.0618 160.14L50.8703 160.047L50.5367 159.849L50.4378 159.726L49.4371 158.237L48.7452 156.983L48.3992 156.254L47.7012 154.728L47.3552 153.888L46.6757 152.158L46.3483 151.244L45.1004 147.463L44.6 145.542L44.1181 143.627L43.9266 142.7L43.5683 140.866L43.4386 140.007L43.2039 137.9L43.0988 136.381L43.068 135.584L43.0185 132.291L43.0865 130.636L43.278 127.355L43.4571 125.873L43.6548 124.433L43.7722 123.778L44.0193 122.531L44.1676 121.999L44.5629 120.714L44.81 120.183L44.9645 120.047L45.3104 119.862M137.085 141.391L137.554 141.483L137.666 141.595L137.82 141.873L137.808 142.107L137.727 142.645L137.635 143.046L136.615 146.716L135.763 149.378L135.3 150.688L134.348 153.246L133.885 154.351L133.428 155.414L133.218 155.877L132.791 156.754L132.6 157.1L132.211 157.811L132.044 158.107L131.723 158.651L131.581 158.867L131.031 159.596L130.722 159.794L130.073 160.109L129.61 160.177L128.578 160.263L127.819 160.288L123.927 160.14L121.19 159.788L119.769 159.491L116.903 158.83L115.451 158.385L112.529 157.434L111.071 156.859L108.168 155.649L106.747 154.957L103.93 153.517L102.583 152.72L99.9205 151.071L98.6726 150.188L96.2448 148.365L95.139 147.402L92.7235 145.301L93.817 143.639L94.9042 141.978L96.5351 143.238L97.4124 143.917L98.166 144.51L98.5923 144.85L100.402 146.283L101.255 146.963L103.769 148.754L105.653 149.903L106.673 150.447L108.761 151.516L109.848 152.004L112.059 152.955L113.184 153.375L115.432 154.185L116.551 154.524L118.768 155.161L119.843 155.402L121.95 155.834L122.938 155.964L124.859 156.161H125.718L128.56 156.174L130.444 152.004L131.988 148.106L132.446 146.778L132.631 146.178L132.964 145.036L133.069 144.591L133.31 143.553L133.459 142.985L133.527 142.762L133.817 142.002L133.996 141.792L134.41 141.471L134.719 141.415L135.411 141.347H135.924M97.2517 126.379L97.7954 127.071L97.9992 127.516L98.3019 128.535L98.2957 129.264L98.1598 129.746L97.9992 130.253L97.8757 130.555L97.61 131.192L97.4371 131.575L97.0541 132.384L96.8193 132.859L96.3127 133.873L96.01 134.466L94.4286 137.332L93.3351 139.031L92.705 139.859L91.3768 141.52L90.5614 142.429L89.7089 143.349L88.251 144.863L87.695 145.412L86.027 147.086L85.3228 147.778L84.0008 149.057L83.4571 149.564L82.4317 150.484L82.0178 150.818L81.2332 151.411L80.9181 151.59L80.3313 151.886L80.0903 151.93L79.6332 151.961L79.4417 151.886L79.071 151.676L78.8981 151.491L78.5583 151.083L78.3792 150.805L77.7985 149.854L77.6378 149.409L77.6811 149.224L77.8602 148.878L78.0888 148.674L78.651 148.248L79.0896 147.945L80.1521 147.093L81.1405 146.222L81.7212 145.684L82.9444 144.535L83.5992 143.905L84.9151 142.62L85.5637 141.965L87.9853 139.377L89.295 137.814L89.851 137.029L90.9259 135.436L91.4263 134.546L92.4332 132.686L92.9768 131.568L94.095 129.375L94.8116 128.09L95.1266 127.578L95.7259 126.651L95.9606 126.361L96.3745 125.916H96.4795M113.857 118.62L114.271 118.688L114.53 118.775L115.086 118.966L115.42 119.096L116.334 119.559L116.538 119.781L116.619 119.942L116.754 120.3L116.81 120.547L116.897 121.097L116.921 121.468L116.971 122.271L116.983 122.79L117.002 123.914V124.612L117.008 126.114V127.028L116.785 132.544L116.415 135.985L116.112 137.604L115.432 140.779L114.975 142.274L113.975 145.215L113.357 146.617L112.745 147.902L112.455 148.322L111.88 149.026L111.571 149.181L110.947 149.354L110.589 149.249L109.829 148.927L109.372 148.594L108.822 148.075L108.656 147.692L108.686 147.408L108.829 146.759L109.02 146.265L109.23 145.734L109.366 145.412L109.663 144.727L109.848 144.313L111.479 139.797L112.307 136.578L112.578 134.898L113.036 131.5L113.116 129.764L113.19 126.274L113.073 124.532L112.943 122.438L112.887 121.307V120.869L112.893 120.059L112.924 119.757L113.005 119.225L113.079 119.053L113.252 118.762L113.381 118.694L113.666 118.602M77.5205 123.958L77.817 124.069L77.9282 124.217L78.6448 125.378L78.8857 126.076V126.404L78.793 127.04L78.6324 127.349L78.2185 127.961L77.8911 128.263L76.3344 129.53L75.068 130.413L74.339 130.864L72.8255 131.76L71.9977 132.211L70.305 133.1L69.4093 133.527L65.7521 135.195L63.9112 135.886L62.0764 136.547L61.193 136.825L59.4448 137.351L58.6293 137.548L57.8818 137.721L57.4432 137.814L56.529 137.993L56.0471 138.086L54.0888 138.432L53.3042 138.537L51.7413 138.71L51.0556 138.716L50.8332 138.648L50.4687 138.456L50.3514 138.271L50.1537 137.839L50.0672 137.511L49.7336 135.942V135.256L49.8695 135.046L50.2402 134.719L50.5923 134.645L51.4139 134.552H52.0255L54.5707 134.348L56.4548 134.027L57.468 133.78L59.5251 133.236L60.5876 132.897L62.7251 132.168L63.7938 131.748L65.9313 130.87L66.9629 130.388L69.0015 129.394L69.9529 128.869L71.8062 127.794L72.634 127.238L74.2154 126.12L74.8764 125.558L76.0687 124.6L76.6927 124.18L76.9274 124.075L77.3598 123.933M156.649 111.843L156.847 112.059L156.946 112.226L157.372 113.042L157.601 113.641L158.046 114.944L158.268 115.723L158.707 117.366L158.91 118.256L159.664 121.981L159.893 123.754L160.09 125.496L160.134 126.268L160.183 127.738L160.146 128.325L159.954 129.9L159.714 130.648L159.46 130.957L158.849 131.55L158.33 131.877L157.768 132.223L157.422 132.415L156.68 132.829L156.236 133.076L154.358 133.99L152.825 134.651L151.985 134.978L150.274 135.627L149.422 135.924L147.735 136.492L146.969 136.714L144.813 137.289L143.676 137.524L141.385 137.956L140.205 138.117L135.436 138.623L133.107 138.654L130.79 138.648L129.678 138.586L127.491 138.432L126.472 138.302L124.483 137.999L123.581 137.789L121.851 137.338L121.11 137.054L120.368 136.69L119.991 136.399L119.862 136.226L119.633 135.856L119.571 135.639L119.479 135.182V134.91L119.615 133.687L119.893 133.218L120.195 133.131L120.523 133.076L120.739 133.082L121.208 133.119L121.505 133.168L122.135 133.292L122.518 133.385L123.327 133.588L123.815 133.718L125.798 134.126L127.3 134.305L128.183 134.354L130.049 134.429H131.161L133.514 134.398L134.923 134.342L137.653 134.212L139.303 134.095L140.056 134.015L142.929 133.65L144.263 133.347L146.907 132.668L148.316 132.168L149.755 131.642L150.527 131.334L152.121 130.685L152.992 130.302L155.927 129.036L155.89 125.465L155.791 123.735L155.642 122.388L155.537 121.672L155.309 120.226L155.173 119.534L154.889 118.169L154.734 117.576L154.395 116.248L154.215 115.507L154.147 115.204L153.944 114.154L153.937 113.814L153.981 113.227L154.098 113.029L154.382 112.677L154.611 112.498L155.544 111.954L156.168 111.72L156.371 111.714M37.2301 93.4216L37.922 93.7799L38.2432 94.0085L38.8116 94.5707L38.9104 94.9907L38.7807 95.3058L38.6201 95.6456L38.4903 95.8556L38.1876 96.3066L37.9838 96.5846L37.5328 97.19L37.2486 97.5544L36.6371 98.3328L36.2664 98.7961L33.5112 102.602L31.8247 105.264L31.0772 106.629L29.6502 109.385L29.0448 110.768L27.9081 113.53L27.4695 114.883L26.3884 119.028L25.8448 121.925L25.6903 123.253L25.5544 124.557L25.5174 125.144L25.468 126.268L25.4803 126.744L25.5236 127.627L25.5853 127.954L25.7336 128.529L25.8448 128.671L26.4069 129.141L26.9938 129.511L27.383 129.715L28.2108 130.129L28.6927 130.351L29.6996 130.796L30.2494 131.025L32.5537 131.92L33.7459 132.316L36.1181 133.057L37.1622 133.298L38.9228 133.761L39.6764 134.046L39.8988 134.212L40.2448 134.583L40.3189 134.836L40.4054 135.411V135.812L40.356 136.764L40.2695 137.134L40.0718 137.771L39.9421 137.851L39.3058 137.882L38.5645 137.771L38.0703 137.653L36.9954 137.394L36.3653 137.215L35.0494 136.832L34.3328 136.603L31.3367 135.609L29.8232 135.04L28.3344 134.466L27.6301 134.175L26.2587 133.601L25.6471 133.317L21.088 131.204L21.4649 125.619L22.0764 120.375L22.7436 117.002L23.2131 115.346L24.2448 112.059L24.9058 110.416L26.3266 107.13L27.1915 105.456L29.5884 101.341L31.4293 98.5923L32.3313 97.3938L33.227 96.2386L33.6409 95.7321L34.4564 94.7869L34.8147 94.4162L35.4942 93.7429L35.766 93.539L36.2664 93.2116L36.427 93.2054M84.6618 101.385L84.7174 101.823L84.6865 102.41L84.6494 102.818L84.5506 103.695L84.4764 104.214L84.3158 105.289L84.217 105.863L83.7537 110.558L83.7722 113.857L83.939 115.544L84.3714 118.941L84.7359 120.646L85.5761 124.032L86.1444 125.687L86.8981 127.905L87.3676 129.307L87.5653 129.919L87.9421 131.068L88.078 131.494L88.3066 132.242L88.356 132.415L88.4116 133.255L88.2633 133.737L87.8494 134.713L87.4973 135.145L86.3112 136.615L84.3405 132.452L82.617 128.393L81.7212 125.78L81.3876 124.464L80.7884 121.795L80.5784 120.381L80.2201 117.477L80.1151 115.865L79.9359 113.764L79.7876 112.535L79.7073 112.047L79.5405 111.158L79.454 110.886L79.2873 110.459H79.207L78.8425 110.534L78.478 110.657L78.2556 110.744L77.2795 111.164L76.7668 111.429L75.3521 112.035L74.9815 112.134L74.8517 112.146L74.6293 112.152L74.5923 112.109L74.5737 111.806L74.6541 111.442L74.7405 111.201L75.1791 110.089L75.5127 109.434L76.1984 108.427L76.8965 107.612L77.3228 107.154L79.2317 105.252L80.2695 104.344L81.295 103.454L81.783 103.065L82.722 102.336L83.1174 102.058L83.8649 101.576L84.1305 101.453L84.5815 101.304M90.8209 103.473L91.1112 103.831L91.4139 104.35L91.6054 104.714L92.0008 105.517L92.2232 105.999L92.6741 107L92.9027 107.544L94.2309 110.373L95.244 112.257L95.8062 113.184L98.1969 116.847L99.5498 118.546L100.927 120.214L101.644 120.998L103.083 122.537L103.825 123.241L105.307 124.606L106.061 125.212L107.562 126.373L108.31 126.867L109.49 127.726L110.008 128.214L110.151 128.455L110.373 128.943L110.398 129.227V129.845L110.342 130.24L110.12 131.204L109.947 131.531L109.761 131.822L109.663 131.914L109.465 132.05L109.372 132.044L108.773 131.914L108.303 131.729L108.032 131.593L106.876 130.926L106.203 130.438L104.795 129.369L104.029 128.72L102.459 127.355L101.656 126.589L98.4008 123.352L96.9367 121.647L95.5096 119.948L94.8857 119.12L93.7058 117.502L93.2425 116.754L92.3158 115.266L91.7598 114.401L91.5313 114.055L91.105 113.425L90.9691 113.233L90.7405 112.931H90.7158L90.5428 113.103L90.339 113.369L90.2031 113.567L89.573 114.5L89.2085 115.093L88.6154 116.001L88.2695 116.47L88.1151 116.643L87.8247 116.94L87.7012 117.02L87.4602 117.144L87.3614 117.137L87.1699 117.082L87.0958 116.983L86.9475 116.754L86.8857 116.569L86.7745 116.155L86.7313 115.89L86.651 115.297L86.6201 114.938L86.7066 113.777L86.9104 112.745L87.0649 112.146L87.8247 109.558L88.3004 108.248L88.7884 106.963L89.0355 106.382L89.5236 105.27L89.7459 104.832L90.1845 104.035L90.3699 103.794L90.7035 103.442M126.805 103.04L127.256 103.213L128.134 103.676L128.56 104.084L129.419 105.017L129.869 105.672L132.532 109.996L134.046 112.931L134.669 114.432L135.831 117.459L136.288 119.003L137.11 122.135L137.394 123.741L137.907 126.447L138.086 127.312L138.166 127.683L138.314 128.381L138.376 128.628L138.53 129.524V130.012L138.475 130.215L138.327 130.598L138.197 130.765L137.894 131.093L137.678 131.253L136.974 131.71L136.646 131.84L136.016 132.044L135.744 132.05L135.238 131.995L135.053 131.871L134.725 131.562L134.645 131.309L134.527 130.747L134.429 130.154L134.379 129.783L134.163 128.115L134.064 127.195L133.625 124.458L133.175 122.512L132.884 121.499L131.531 117.391L130.654 115.377L129.758 113.381L129.276 112.43L128.294 110.571L127.781 109.718L126.75 108.075L126.225 107.352L125.175 105.993L124.649 105.443L123.877 104.585L123.593 104.183L123.556 104.041L123.55 103.788L123.649 103.695L123.902 103.522L124.124 103.436L125.817 103.015M79.1143 96.9429L79.5838 97.0046L79.7012 97.0911L79.8432 97.3012L79.8062 97.468L79.6641 97.8448L79.4911 98.1043L79.0896 98.6726L78.7992 99.0371L78.1691 99.8216L77.7737 100.303L75.9019 102.861L74.7035 104.745L74.1351 105.758L73.0232 107.828L72.5104 108.897L71.522 111.065L71.0834 112.158L70.2432 114.351L69.8911 115.426L69.2363 117.57L68.983 118.589L68.5382 120.603L68.4085 121.536L68.2046 123.346V124.149L68.1367 125.378L68.0008 125.996L67.8649 126.231L67.556 126.67L67.3151 126.861L66.7652 127.232L66.3822 127.429L65.3753 127.93L64.9676 128.097L64.5846 128.251L64.4425 128.3L64.1954 128.375H64.1336L63.9544 128.041L63.905 127.516L63.9112 127.127L63.9483 126.262L64.1027 124.612L64.183 123.976L64.566 121.283L64.8378 119.837L65.4124 116.934L65.7459 115.612L66.3822 113.412L66.9135 111.812L67.2039 111.009L67.8031 109.422L68.1058 108.693L68.705 107.303L68.983 106.753L70.2556 104.189L70.4533 103.781L70.8239 103.028L70.9537 102.768L71.1637 102.336L71.1884 102.274L71.0772 102.095L70.8116 101.99L70.6077 101.947L69.5946 101.811H68.9089L67.068 101.669L66.5985 101.57L66.4378 101.514L66.166 101.397L66.1228 101.329L66.1104 100.884L66.3143 100.544L66.5058 100.365L66.9568 100.001L67.2595 99.8093L67.9143 99.4324L68.3035 99.2471L70.0085 98.5181L70.9969 98.2154L73.0479 97.6656L74.0857 97.5174L76.3591 97.19L77.5637 97.0293L78.0208 96.9861L78.8425 96.9305M97.2456 101.496L97.7707 101.786L98.1228 102.021L98.8888 102.552L99.3336 102.886L100.26 103.596L100.754 104.004L103.09 105.752L104.758 106.846L105.641 107.358L109.292 109.304L111.25 110.107L115.253 111.59L117.323 112.134L121.493 113.079L123.587 113.326L125.212 113.579L126.002 113.789L126.293 113.931L126.799 114.246L126.991 114.463L127.33 114.944L127.473 115.266L127.794 116.131L127.831 116.483V117.119L127.695 117.23L127.015 117.403L126.237 117.434L125.718 117.409L124.606 117.347L123.958 117.286L122.611 117.137L121.888 117.045L118.892 116.588L117.459 116.297L116.05 115.995L115.414 115.834L114.191 115.507L113.69 115.34L111.93 114.703L110.62 114.197L109.947 113.919L108.6 113.351L107.97 113.073L106.753 112.517L106.253 112.27L104.795 111.565L103.899 111.158L103.522 110.991L102.818 110.694L102.571 110.602L102.157 110.459H102.083L101.879 110.62L101.761 110.88L101.718 111.065L101.564 111.954V112.517L101.533 113.493L101.483 114.012L101.446 114.215L101.347 114.574L101.286 114.691L101.15 114.883L101.063 114.914L100.878 114.944L100.767 114.901L100.526 114.765L100.39 114.636L100.1 114.345L99.939 114.135L99.593 113.678L99.4015 113.388L98.895 112.356L98.5367 111.392L98.3575 110.812L97.6533 108.279L97.3691 106.944L97.0973 105.616L96.9923 104.998L96.8069 103.806L96.7575 103.3L96.6772 102.361L96.6896 102.033L96.7513 101.477L96.8378 101.385M34.0548 108.748L34.6726 108.971L35.0988 109.131L36.5506 109.7L37.6625 110.151L38.2556 110.398L42.7714 111.954L45.8726 112.714L47.4788 112.955L50.7282 113.344L52.4085 113.406L55.8185 113.431L57.5915 113.307L63.3552 112.9L62.9228 114.302L62.4409 115.525L62.0456 116.273L61.8788 116.483L61.539 116.736L61.1807 116.829L60.3344 117.002L59.7042 117.063L58.2957 117.168L57.3568 117.193L56.3869 117.212L55.8371 117.218L54.7066 117.224L54.0764 117.218L48.9305 117.008L45.7429 116.668L44.2479 116.396L41.3073 115.785L39.905 115.371L37.1375 114.469L35.7846 113.9L34.5737 113.375L33.9004 113.06L33.6286 112.918L32.7205 112.362L32.4857 112.097L32.1583 111.547L32.1707 111.225L32.3066 110.546L32.5104 110.101L33.1035 109.045L33.4618 108.606H33.5668M158.663 76.0749L158.91 76.2108L159.473 76.5382L159.88 76.8039L161.116 77.8355L162.135 78.8548L162.703 79.4849L163.883 80.807L164.495 81.5359L165.724 83.0247L166.317 83.7846L167.491 85.3104L168.016 86.0394L169.023 87.4541L169.431 88.078L170.166 89.2517L170.395 89.7027L170.598 90.1228L170.66 90.2896L170.753 90.5985V90.7035L170.543 91.3707L170.215 92.0255L169.968 92.4332L169.431 93.3042L169.097 93.8046L168.393 94.8239L167.992 95.3737L166.286 97.6409L165.366 98.7653L163.507 100.958L162.642 101.848L157.996 106.234L154.87 108.742L153.276 109.811L150.064 111.812L148.402 112.64L145.036 114.172L143.281 114.778L142.231 115.142L141.008 115.55L140.693 115.642L140.118 115.809L139.89 115.853L139.482 115.908L139.327 115.896L138.815 115.735L138.636 115.488L138.302 114.87L138.08 114.376L137.746 113.239L137.777 112.628L137.919 112.405L138.283 112.004L138.592 111.886L139.284 111.707H139.754L140.557 111.522L141.372 111.238L141.879 111.028L142.966 110.571L143.571 110.299L144.832 109.718L145.493 109.397L148.198 108.044L149.44 107.364L150.651 106.685L151.182 106.37L152.189 105.752L152.578 105.486L154.055 104.387L155.111 103.534L155.655 103.059L157.885 101.051L158.985 99.9514L161.147 97.7212L162.092 96.6278L163.012 95.5529L163.42 95.034L164.192 94.027L164.507 93.5637L166.49 90.6911L164.68 88.0656L163.729 86.7931L162.92 85.7985L162.469 85.2672L160.578 83.1112L159.707 82.234L158.564 81.0602L157.953 80.4178L157.718 80.1459L157.286 79.6394L157.131 79.4232L156.866 79.0154L156.791 78.8425L156.631 78.1938L156.736 77.8788L157.063 77.2425L157.366 76.8286L157.866 76.217L158.151 76.0131H158.311M69.3722 87.1946L69.9097 87.2996L70.9969 87.5591L71.5776 87.7568L72.7699 88.2015L73.4494 88.4981L76.2479 89.61L77.0262 89.8695L77.3228 89.9498L77.8479 90.0734H77.9776L78.4471 90.129L78.6015 90.2278V90.3019L78.5521 90.4626L78.4595 90.5738L78.2124 90.7961L78.0208 90.9321L77.5884 91.2224L77.3104 91.383L76.705 91.7166L76.3344 91.9019L75.556 92.2849L75.1112 92.4888L74.1722 92.9089L73.6471 93.1313L70.1259 94.7869L68.9707 95.3861L68.4579 95.6703L67.4942 96.2139L67.1359 96.4425L65.19 97.6162L64.6896 97.888L64.5166 97.9745L64.2263 98.1043H64.1768L63.6394 98.4378L63.0278 98.9691L62.6201 99.3459L61.7614 100.18L61.2672 100.674L60.2541 101.7L59.7228 102.256L57.5791 104.547L56.6649 105.598L55.7876 106.617L55.4417 107.043L54.8054 107.853L54.6139 108.137L54.0208 108.989L53.7614 109.292L53.2425 109.829L52.9768 110.002L52.4394 110.286L52.1305 110.354L51.4695 110.453H51.0618L49.6409 110.305L49.3135 110.2L49.2147 110.138L49.0541 110.009V109.941L49.295 109.397L49.6718 108.736L49.9498 108.297L50.5552 107.352L50.9135 106.809L51.6795 105.678L52.0996 105.085L54.6015 101.823L56.3251 99.9019L57.2764 99.0062L59.2656 97.2394L60.427 96.356L61.6193 95.4664L62.2741 95.0093L63.6085 94.0826L64.3436 93.5946L65.8448 92.5815L66.722 91.9575L67.068 91.6981L67.7042 91.2162L67.8957 91.0433L68.1985 90.7591V90.7158L67.9884 90.4626L67.6672 90.1969L67.4262 90.0239L66.2958 89.2641L62.9537 87.2934L66.4255 87.1081L68.2602 87.1019M133.236 93.0263L133.527 93.1251L134.144 93.3846L134.546 93.5946L135.528 94.1382L135.88 94.41L135.917 94.5398L135.905 94.8054L135.775 94.9784L135.436 95.3552L135.151 95.6208L133.681 96.6772L132.347 97.3876L131.537 97.7459L129.832 98.444L128.881 98.7776L126.923 99.4324L125.885 99.7351L121.61 100.853L119.522 101.218L117.453 101.545L116.489 101.644L114.605 101.798L113.771 101.805L109.613 101.811L110.836 103.819L111.701 105.375L111.905 105.795L111.967 105.95L112.066 106.228V106.29L111.979 106.531L111.837 106.611L111.503 106.734L111.293 106.728L109.836 106.327L108.742 105.697L108.137 105.208L106.889 104.103L106.203 103.38L104.807 101.805L100.841 96.7575L105.06 97.2765L111.998 97.6595L116.625 97.4741L118.842 97.1776L121.036 96.844L122.092 96.6278L124.174 96.1583L125.156 95.8803L127.083 95.2873L127.973 94.9475L129.715 94.2309L130.5 93.8294L131.778 93.2301L132.421 93.0139L132.699 93.0016M42.5552 66.339L43.1915 66.8641L43.4386 67.1853L43.8834 67.8525L43.9637 68.1614L44.0317 68.7421L43.8525 68.9151L43.3151 69.2054L42.5985 69.5266L42.1042 69.7305L41.0355 70.1691L40.4054 70.4162L39.1019 70.929L38.3977 71.1946L32.3066 73.9931L28.5135 76.2541L26.7776 77.5637L25.0664 78.9042L24.251 79.6147L22.6571 81.0664L21.9035 81.8324L20.4394 83.3892L19.7537 84.2046L18.4131 85.8602L17.8015 86.7251L14.9907 90.6541L16.9738 93.539L17.9807 94.9043L18.8023 95.9544L19.2533 96.4981L20.1737 97.5977L20.6309 98.1228L21.539 99.1421L23.1081 100.829L23.7876 101.588L24.0595 101.897L24.5475 102.478L24.7019 102.676L24.9367 103.003V103.046L24.8131 103.368L24.6154 103.676L24.1521 104.375L23.8556 104.758L22.7745 106.16L19.939 103.213L17.1158 100.106L15.3552 97.9992L14.5954 96.9923L13.156 95.0402L12.6124 94.2L12.1058 93.3846L11.9019 93.0263L11.5374 92.3344L11.4201 92.0502L11.0494 90.9135L11 90.2649L11.105 89.9004L11.4077 89.1158L11.7104 88.5846L12.0502 88.0224L12.2602 87.6888L12.7112 86.9784L12.9892 86.5583L14.3112 84.6927L15.3243 83.3954L15.8865 82.7344L18.2525 80.0656L19.5498 78.7745L22.1876 76.2417L23.5097 75.1359L24.8193 74.061L25.4556 73.5853L26.7158 72.671L27.3089 72.288L29.0633 71.2255L30.3668 70.5027L31.0587 70.1382L33.9066 68.7174L35.3027 68.0996L36.6803 67.5066L37.3166 67.2471L38.5645 66.7653L39.1143 66.5799L40.1583 66.2402L40.5722 66.1413L41.332 65.9807H41.5791M128.788 82.9629L129.011 83.0309L131.717 84.044L133.613 84.9336L134.583 85.4711L136.547 86.6139L137.542 87.2687L139.519 88.6216L140.501 89.3629L142.447 90.8826L143.386 91.6981L145.246 93.3537L146.123 94.2124L147.84 95.9606L148.631 96.8502L150.151 98.6479L150.824 99.556L151.559 100.606L151.825 101.107L151.849 101.304L151.825 101.681L151.714 101.879L151.429 102.28L151.195 102.54L150.484 103.238L150.169 103.411L149.545 103.627L149.249 103.547L148.643 103.269L148.322 102.929L147.667 102.132L147.297 101.527L145.697 99.3892L144.313 97.8695L143.497 97.085L141.786 95.5158L140.847 94.7375L138.926 93.1931L137.913 92.4579L135.868 91.0124L134.836 90.3514L132.773 89.0726L131.772 88.529L129.795 87.5035L128.875 87.1081L127.083 86.3977L126.293 86.1938L124.779 85.7985L126.256 84.2232L126.997 83.5313L127.466 83.21L127.689 83.1112L128.134 82.9629L128.35 82.9506M32.3313 77.8602L32.671 78.0147L32.844 78.2L33.2208 78.651L33.4618 78.9969L34.0486 79.7876L34.5305 80.3992L34.8085 80.739L35.9884 82.1537L36.6309 82.8888L37.9344 84.3405L38.5336 84.9768L39.1205 85.5946L39.3861 85.8541L39.8865 86.3544L40.0965 86.5459L41.2394 87.4911L42.2093 88.2201L42.7652 88.6154L45.1745 90.2649L46.4718 91.0865L49.0849 92.6927L50.2463 93.3351L51.3645 93.9467L51.8463 94.1877L52.7483 94.6201L53.0942 94.7498L55.8927 95.8185L54.5274 97.2703L53.7799 98.0548L53.4525 98.271L52.8162 98.5923L52.427 98.5737L52.0131 98.5305L51.766 98.4564L51.2409 98.2896L50.9197 98.1598L50.2402 97.8633L49.8324 97.6718L48.9552 97.2517L48.4301 96.9923L43.8278 94.3977L40.8749 92.3961L39.4849 91.278L36.773 88.9799L35.5375 87.7382L33.1529 85.2116L32.1089 83.8896L31.0154 82.4502L30.373 81.5606L30.1135 81.1838L29.6502 80.4795L29.5081 80.2324L29.2857 79.8062V79.7259L29.7429 79.0834L30.4162 78.5583L30.8486 78.3297L31.7197 77.9158L32.1521 77.8108M129.388 71.1205L130.036 71.2255L130.481 71.3367L132.464 71.8494L130.215 75.1853L128.986 76.8656L128.041 78.0394L127.516 78.6448L125.28 81.0911L124.056 82.2834L121.561 84.6124L120.325 85.6255L119.096 86.6139L118.503 87.0463L117.335 87.8741L116.792 88.2201L115.457 89.0911L114.673 89.6348L114.358 89.8695L113.789 90.3081L113.61 90.4626L113.332 90.7405V90.7961L113.493 91.0618L113.752 91.3212L113.944 91.4819L114.87 92.1799L115.469 92.5444L116.897 93.6564L117.181 93.99L117.249 94.1259L117.329 94.373L117.286 94.4533L117.051 94.688L116.847 94.7684L116.384 94.9104L116.081 94.9413L115.426 94.9784L115.037 94.966L114.228 94.9166L113.777 94.8548L111.874 94.5336L110.849 94.2556L108.773 93.6255L107.778 93.2116L106.222 92.5197L105.295 92.0626L104.912 91.8587L104.22 91.4695L103.998 91.3151L103.633 91.0371L103.608 90.9506L103.825 90.6108L104.239 90.2896L104.554 90.1043L105.252 89.7151L105.684 89.5112L106.592 89.0973L107.105 88.8996L108.816 88.146L110.101 87.522L110.762 87.1761L112.078 86.4718L112.69 86.1197L113.882 85.4154L114.37 85.0942L115.815 84.0502L116.903 83.1853L117.49 82.6849L119.924 80.5228L121.159 79.3181L123.605 76.878L124.662 75.7166L125.675 74.5676L126.114 74.0425L126.935 73.017L127.25 72.5722L127.973 71.6579L128.393 71.2873L128.622 71.2008L129.091 71.0896M142.459 43.8525L143.33 44.0255L143.856 44.149L144.955 44.4394L145.561 44.6124L146.815 44.9892L147.482 45.2054L150.2 46.1197L151.522 46.6263L154.104 47.6579L155.154 48.1583L160.251 50.5737L160.232 53.4896L160.084 56.3313L159.868 58.3205L159.701 59.3398L158.892 63.5097L158.28 65.6409L156.934 69.8973L156.087 71.9668L154.277 76.044L153.233 77.9158L152.517 79.1266L152.078 79.8L151.151 81.1653L150.651 81.8571L149.638 83.2162L149.131 83.8402L148.149 85.0324L147.704 85.5019L144.498 88.9429L141.718 85.9776L143.658 84.1676L144.64 83.1297L145.369 82.2525L145.764 81.746L147.389 79.5467L148.211 78.305L149.823 75.7784L150.521 74.5614L151.195 73.3568L151.479 72.7946L152.016 71.7012L152.226 71.2193L152.9 69.4896L153.344 68.2046L153.561 67.5127L154.395 64.6463L154.747 63.1884L155.395 60.3035L155.599 59.0371L155.785 57.8139L155.84 57.2765L155.927 56.2571V55.8494L155.871 54.2432L155.723 53.5143L155.556 53.2425L155.13 52.7359L154.771 52.495L153.925 51.9946L153.301 51.6672L151.917 51.0309L150.744 50.5552L150.089 50.3081L147.315 49.3197L146.042 48.949L144.585 48.5166L143.781 48.2633L143.46 48.1521L142.867 47.9297L142.632 47.8247L142.212 47.6209L142.052 47.5097L141.545 47.0649L141.428 46.7683L141.261 46.1259L141.218 45.6687V44.3097L141.273 43.9884L141.323 43.8958L141.422 43.7413H141.483M69.9158 74.7035L70.2741 74.7838L70.5027 74.8641L71.0031 75.068L71.312 75.2162L71.9668 75.5375L72.356 75.7413L73.2764 76.4085L74.061 77.1004L74.5058 77.5328L76.3838 79.4602L77.2981 80.5104L78.1938 81.5483L78.5892 82.0425L79.3367 82.9876L79.6208 83.3892L80.1336 84.1367L80.2633 84.4023L80.4363 84.8409L80.3683 84.9089L79.9297 84.9645L79.3428 84.9336L78.9351 84.8965L78.0517 84.7977L77.5328 84.7236L76.4579 84.5629L75.8772 84.4579L70.9598 83.9822L67.4819 83.9946L65.7089 84.1614L62.1506 84.6L60.4085 84.9707L56.9552 85.817L55.3367 86.3792L53.8664 86.8919L51.8463 87.6023L51.2718 87.8L50.2031 88.1768L49.8139 88.3127L49.1529 88.5413L49.017 88.5907L47.9236 88.4857L47.0278 88.0904L46.6386 87.7691L46.0888 87.2811L45.8417 86.9846L45.7799 86.8487L45.7058 86.5768L45.7429 86.4409L45.8602 86.1691L46.0023 86.027L46.3483 85.7367L46.6077 85.5761L47.1884 85.2363L47.5776 85.0448L48.4178 84.6494L48.949 84.4147L50.0795 83.9266L50.7591 83.6425L53.4093 82.6664L55.3367 82.0672L56.3374 81.8015L58.3513 81.3012L59.3459 81.0911L61.3166 80.7019L62.2432 80.5537L64.0409 80.3004L64.8317 80.2263L66.3266 80.1274L66.9197 80.1398L67.9884 80.2139L68.3158 80.3251L68.6062 80.4487L68.6927 80.529L68.8224 80.7019V80.807L68.9768 81.332L69.2116 81.4309L69.3722 81.3691L69.7305 81.1714L69.9344 80.9614L70.3483 80.4795L70.5583 80.1459L70.929 79.4046L71.0216 78.9537L70.9907 78.7127L70.8734 78.2L70.7251 77.8849L70.3791 77.1992L70.1135 76.7483L69.6749 75.9452L69.4834 75.5127L69.434 75.346L69.366 75.0432L69.3846 74.9444L69.4587 74.7653L69.5452 74.7282L69.7552 74.6788M116.754 53.749L116.964 53.8293L117.039 53.9282L117.168 54.1568L117.205 54.3297L117.261 54.7251V55.5653L117.242 55.9297L117.199 56.7081L117.168 57.1776L116.594 61.4896L115.951 64.5784L115.525 66.129L114.605 69.2178L114.073 70.6633L112.961 73.468L112.356 74.6602L111.522 76.3653L111.034 77.4155L110.842 77.8602L110.49 78.6819L110.379 78.9722L110.212 79.4664V79.5591L110.422 79.8062L110.744 79.9483L110.985 80.01L112.115 80.2015L112.838 80.2077L115.463 80.2201L113.314 82.0054L112.134 82.8456L111.318 83.2965L110.873 83.4757L109.953 83.7907L109.44 83.9143L108.365 84.1243L107.754 84.1985L105.82 84.4456L104.171 84.6988L103.843 84.7544L103.263 84.8595L103.09 84.9027L102.354 85.0263L101.978 85.0386L101.854 84.9954L101.644 84.8904L101.601 84.7853L101.551 84.5506L101.588 84.3776L101.712 84.0008L101.829 83.7537L102.12 83.2224L102.33 82.895L102.793 82.1969L103.09 81.783L103.726 80.9058L104.109 80.3992L107.525 75.2718L109.403 71.7568L110.144 69.9529L111.497 66.3081L111.979 64.4301L112.807 60.6371L113.029 58.6849L113.301 56.7761L113.505 55.868L113.647 55.5529L113.95 54.9969L114.166 54.7992L114.629 54.4533L114.944 54.3112L115.729 53.9714L116.155 53.8108L116.322 53.7737L116.637 53.7305M95.2811 45.9035L95.6456 46.3977L95.8556 46.756L96.3066 47.5591L96.5537 48.0471L97.0541 49.0726L97.3135 49.6471L98.3699 52.0934L98.8456 53.3722L99.7475 55.9174L100.044 57.0232L100.458 58.8888L100.73 60.4023L100.847 61.2301L101.082 62.9104L101.175 63.7444L101.341 65.3938L101.391 66.1351L101.551 68.2355L101.681 69.4649L101.743 69.9529L101.879 70.8363L101.941 71.1143L102.058 71.5344H102.114L102.404 71.4417L102.713 71.2934L102.91 71.1822L103.806 70.6633L104.307 70.3359L105.128 69.8294L105.591 69.5946L105.777 69.5266L106.11 69.4216H106.234L106.456 69.4587L106.518 69.5266L106.617 69.6934L106.623 69.8294L106.605 70.1382L106.549 70.3483L106.413 70.7931L106.302 71.071L106.055 71.6579L105.882 72.0039L105.462 72.7328L105.122 73.1776L104.368 74.0981L103.899 74.5985L102.904 75.6116L102.354 76.1243L101.218 77.1313L100.625 77.6008L96.4919 80.8811L97.017 76.983L97.5421 70.4162L97.4803 66.234L97.2456 64.2077L96.6402 60.1985L96.1274 58.2278L94.9598 54.305L93.6749 51.1112L93.4154 50.4193L93.3104 50.129L92.983 49.0973L92.9336 48.7205L92.9027 48.0533L92.983 47.7753L93.2116 47.2378L93.4093 46.9351L94.2062 45.99L94.7189 45.5946H94.8734M54.5151 64.2015L55.2996 64.2263L55.7876 64.2695L56.8193 64.3622L57.4062 64.4301L59.9205 64.7575L61.2981 64.9861L64.0965 65.4865L65.4247 65.783L67.4757 66.3452L69.051 66.8517L69.8664 67.1544L71.5158 67.7784L72.3004 68.1058L73.8324 68.773L74.4811 69.0942L76.3467 69.9776L77.471 70.4656L77.9344 70.6448L78.7807 70.9598L79.0649 71.034L79.5282 71.1328L79.5776 71.0834L79.7197 70.7375L79.8062 70.3421L79.8432 70.0826L79.9606 68.8904L79.9915 65.6718L81.6965 67.661L82.5676 68.8718L83.0247 69.7676L83.21 70.3174L83.556 71.5035L83.7104 72.2695L84.0131 73.9251L84.1676 74.9938L84.3714 76.4332L84.4517 77.0819L84.6062 78.3112L84.6618 78.8116L84.7483 79.7197L84.7668 80.01L84.7853 80.4672L84.7606 80.4857L84.4208 80.3313L83.9575 80.0286L83.6301 79.7938L82.9259 79.2749L82.512 78.9537L81.6471 78.2803L81.1776 77.9035L78.5892 76.0193L76.705 74.8147L75.7042 74.2525L73.6656 73.1529L72.6093 72.6463L70.4842 71.6765L69.4154 71.244L67.2718 70.4286L66.2154 70.0826L64.1212 69.4463L63.1205 69.2054L61.1436 68.773L60.217 68.6494L58.4255 68.4517H57.6224L56.3807 68.3838L55.7629 68.2479L55.522 68.1181L55.0834 67.8031L54.8919 67.5622L54.5212 67.0124L54.3236 66.6294L53.6564 65.2209L53.5019 64.8378L53.4525 64.6958L53.3784 64.4425V64.3869L53.6749 64.2386L54.1568 64.1954M46.095 50.3019L46.5521 50.4934L46.7004 50.7282L46.9537 51.3151L47.0525 51.8278L47.1452 52.3776L47.1946 52.7236L47.2934 53.4649L47.349 53.9097L48.3683 59.3212L49.3815 62.8116L50.061 64.5042L51.5251 67.8649L52.427 69.4958L54.3544 72.739L55.4911 74.3205L56.1645 75.2718L56.529 75.7969L56.6649 76.0193L57.122 76.7853L57.2023 77.0448L57.2641 77.5019L57.1714 77.6749L56.9058 78.0023L56.6649 78.1815L55.8927 78.6942L55.5591 78.7992L54.9042 78.9104L54.583 78.7931L53.9282 78.4533L53.5513 78.095L52.7606 77.2548L52.2726 76.6371L50.6602 74.339L49.6039 72.5907L49.0973 71.6394L48.0965 69.6811L47.6332 68.6556L46.7189 66.5676L46.305 65.505L45.5143 63.3676L45.1683 62.3112L44.5259 60.2046L44.2664 59.1853L43.8031 57.1838L43.6486 56.251L43.3892 54.4348L43.3521 53.6255L43.1853 50.2278H45.0386M72.1521 49.5359L72.6278 49.6965L72.9552 49.8757L73.6842 50.3143L74.1784 50.6417L78.2556 53.6378L80.7884 55.8124L81.956 56.9799L84.2232 59.3645L85.2487 60.6309L87.2317 63.2193L88.1089 64.5784L89.0973 66.0795L89.6965 66.9629L89.9436 67.3151L90.3946 67.9514L90.549 68.149L90.7961 68.4517H90.827L91.0062 68.2541L91.2162 67.9452L91.3459 67.7166L91.9575 66.6417L92.3096 65.956L92.81 65.0602L93.1251 64.5969L93.261 64.4301L93.7923 63.9236L93.9961 63.8927L94.373 63.9853L94.4965 64.2139L94.7066 64.8008L94.7498 65.2456L94.793 66.234L94.7436 66.8456L94.6015 68.1305L94.4595 68.8595L94.1259 70.3544L93.8911 71.1514L93.3598 72.7575L93.0139 73.5668L92.4332 74.9506L92.1985 75.5066L91.7537 76.5259L91.5745 76.8965L91.2347 77.5514L91.0865 77.7429L90.8085 78.0394L90.6726 78.0517L90.4131 77.99L90.2772 77.8293L89.9992 77.4216L89.8448 77.088L89.505 76.3282L89.3073 75.8216L88.8749 74.7282L88.6093 74.0487L87.3984 71.3861L86.4347 69.5699L85.8788 68.6556L83.4819 64.9985L82.0857 63.2564L80.6649 61.5328L79.9174 60.7174L78.4162 59.1174L77.644 58.3699L76.0873 56.9305L75.3089 56.2819L73.7398 55.0463L72.9614 54.5212L71.5838 53.3907L70.9907 52.6556L70.8548 52.2911L70.6819 51.5498L70.7498 51.1668L70.9907 50.3822L71.2564 49.9622L71.6332 49.573L71.9421 49.4865M128.547 64.3313L129.666 64.4054L134.231 64.8687L136.529 65.295L138.808 65.746L139.914 66.0178L142.089 66.5799L143.114 66.895L145.097 67.5498L145.993 67.9081L147.71 68.6371L148.439 69.0324L149.15 69.4649L149.403 69.7305L149.428 69.8973L149.409 70.268L149.304 70.5336L149.032 71.1328L148.81 71.5653L148.297 72.5166L148.1 72.844L147.92 73.1344L147.853 73.2209L147.747 73.3506L147.723 73.3444L147.426 73.2085L147.012 73.0108L146.722 72.8749L145.709 72.3931L144.924 72.0162L144.498 71.8124L140.39 70.2L137.468 69.3969L135.886 69.1313L132.643 68.6865L130.883 68.5938L127.263 68.495L125.286 68.5691L122.87 68.6556L121.573 68.6865H121.06L120.127 68.668L119.775 68.6371L119.158 68.5506L118.947 68.4765L118.589 68.2973L118.49 68.1737L118.342 67.8958L118.336 67.7104L118.348 67.3089L118.404 67.0556L118.534 66.512L118.62 66.1846L118.96 65.468L119.355 65.122L119.701 64.9985L120.498 64.7761L121.116 64.6834L121.771 64.5969L122.166 64.5475L123 64.461L123.488 64.4178L126.429 64.288M49.7521 43.173L51.0124 43.2533L51.6919 43.3151L54.478 43.5992L55.8185 43.7846L57.1467 43.9822L57.7521 44.0811L58.9197 44.2911L59.4201 44.3961L60.3467 44.6062L60.6865 44.705L61.2919 44.9027L61.4402 44.9954L61.817 45.3166L61.9467 45.5699L61.9529 45.7305L61.9282 46.0826L61.8541 46.3174L61.6625 46.8239L61.5143 47.1575L61.0633 47.9915L60.7668 48.3436L60.5938 48.4301L60.217 48.5537L59.9699 48.5413L59.4324 48.4734L59.0741 48.3807L55.5344 47.6826L53.051 47.3799L51.766 47.3058L49.1652 47.2131L47.8371 47.2502L45.1683 47.3614L43.8278 47.4911L41.1405 47.8062L39.8062 48.0409L37.1498 48.5537L35.8525 48.8811L33.2703 49.5853L32.0286 50.0054L29.5761 50.9012L25.19 52.8348L25.6656 57.7089L26.2649 61.9097L26.5243 63.2193L26.6602 63.7691L26.9197 64.8008L27.0494 65.1529L27.5066 66.5676L27.6548 67.2224L27.6486 67.4571L27.5745 67.8834L27.4571 68.0626L27.1606 68.4147L26.9197 68.6124L26.3019 69.1251L25.9869 69.3537L25.3876 69.7799L25.1961 69.8911L24.9367 69.8973L24.7452 69.7737L24.6463 69.6564L24.2386 69.0263L24.0224 68.5197L23.59 67.3892L23.3676 66.6788L22.9351 65.1653L22.7313 64.3127L21.9591 60.6741L21.6934 58.7776L21.4525 56.8934L21.3784 55.9915L21.261 54.2309V53.4402L21.2548 50.4749L25.9375 48.251L29.817 46.6633L30.9722 46.2865L31.4479 46.1691L32.3066 45.9776L32.5784 45.9653L34.1413 45.712L34.5861 45.5575L34.7591 45.4649L35.068 45.2795L35.1544 45.1807L35.729 44.8409L36.3838 44.6062L36.8224 44.495L37.7676 44.2602L38.3236 44.149L39.4849 43.9266L40.1212 43.8278L42.79 43.4448L44.1614 43.3212L46.8857 43.1236H48.0656M70.1073 32.3745L70.7251 32.5166L72.9799 33.3012L71.5405 36.8224L69.9097 41.4556L69.1127 44.5135L68.8533 46.0764L68.427 49.2332L68.3405 50.9073L68.2541 54.3112L68.39 57.6842L68.4147 58.3143L68.4517 59.4819L68.4579 59.9514L68.4641 60.81L68.4517 61.1436L68.4208 61.7429L68.39 61.9591L68.3158 62.3421L68.2541 62.4718L68.1243 62.688L68.0378 62.7498L67.6301 62.8857L67.3212 62.8795L66.3946 62.8301L65.888 62.7375L65.678 62.6448L65.295 62.4224L65.1405 62.2494L64.8625 61.8602L64.7575 61.5822L64.5722 60.9768L64.5042 60.5691L64.393 59.6981L64.356 59.1421L64.3004 57.956L64.2818 57.227L64.2633 55.6826L64.2571 54.756L64.461 49.3012L64.8131 45.922L65.1096 44.3405L65.7768 41.2332L66.234 39.7568L67.2347 36.8409L67.8587 35.4201L68.3529 34.3266L68.6247 33.7336L68.7483 33.505L69.1869 32.7452L69.3969 32.5722L69.8293 32.3436M133.341 25.9313L134.954 29.7861L135.886 32.4116L136.276 33.7398L137.011 36.3961L137.307 37.7305L137.839 40.3992L138.03 41.7212L138.364 44.3653L138.45 45.6625L138.568 48.2448L138.549 49.4988L138.456 51.9884L138.327 53.1869L138.018 55.5529L137.777 56.671L137.499 57.9189L137.357 58.4873L137.073 59.5807L136.943 60.0317L136.69 60.8595L136.585 61.1375L136.387 61.5946L136.325 61.6502L135.559 61.8479L134.799 61.8541L134.398 61.7923L133.644 61.6008L133.335 61.4154L133.261 61.261L133.162 60.9027L133.181 60.6371L133.255 60.0255L133.341 59.5992L133.428 59.0494L133.49 58.5429L133.527 58.2278L133.656 56.8255L133.724 55.9483L133.86 54.095L133.922 53.0695L134.039 50.9815L134.089 49.9189L134.169 47.8247L134.2 46.5707L134.206 46.0023L134.2 43.8772L134.151 42.9753L134.015 41.2641L133.897 40.4857L133.625 38.9598L133.428 38.1815L132.236 34.061L131.284 31.2934L130.808 30.0703L130.333 28.8903L130.104 28.3714L129.659 27.3892L129.462 27L129.079 26.2896L128.918 26.0548L128.615 25.678L128.504 25.6348L127.856 25.5668L127.158 25.573L126.7 25.5977L125.724 25.6718L125.162 25.7274L123.995 25.851L123.371 25.9251L120.788 26.2772L119.541 26.4934L118.317 26.7097L117.761 26.827L116.686 27.0556L116.236 27.1668L114.623 27.5375L113.882 27.6363L113.622 27.6054L113.159 27.488L112.968 27.3398L112.603 26.9876L112.393 26.7158L111.812 25.6903L111.621 25.0726L111.676 24.8996L112.115 24.4734L112.708 24.1645L113.128 24.0039L114.055 23.6826L114.617 23.5158L115.803 23.1946L116.47 23.0402L119.324 22.4409L120.875 22.2062L124.013 21.7923L125.502 21.6934L131.21 21.3228M130.703 43.278L131.142 43.4819L131.259 43.6919L131.463 44.1923L131.556 44.5753L131.735 45.8479L131.698 46.5521L131.605 46.7066L131.136 46.9537L130.531 47.1328L130.117 47.2193L129.221 47.3861L128.696 47.4602L127.608 47.6085L127.028 47.6579L122.117 48.4857L118.818 49.4062L117.187 50.0363L113.937 51.4139L112.356 52.2664L109.23 54.0703L107.741 55.1205L106.79 55.7938L106.395 56.0656L105.666 56.5722L105.375 56.7699L104.832 57.122L104.622 57.2456L104.232 57.4618L104.09 57.5174L103.621 57.6347L103.491 57.5297L103.275 57.2332L103.17 56.9676L102.892 55.905L102.849 55.2378L102.91 54.9166L103.083 54.2741L103.263 53.9591L103.683 53.3228L103.992 52.9954L104.671 52.3405L105.116 52.0008L106.08 51.3027L106.679 50.932L107.951 50.1722L108.705 49.7583L110.305 48.912L111.238 48.4486L115.253 46.6448L117.99 45.6131L119.355 45.1869L122.092 44.3961L123.426 44.1058L126.07 43.5931L127.33 43.451L128.572 43.3089L129.246 43.2471L129.517 43.2286L130.432 43.2039M102.342 29.712L102.589 29.9282L103.083 30.4656L103.361 30.9042L103.775 31.6826L103.868 32.078L103.806 32.2571L103.602 32.6093L103.38 32.8131L102.842 33.2394L102.435 33.5297L101.385 34.3514L100.421 35.1668L99.8525 35.6734L97.4 37.8788L96.1645 39.0587L93.7676 41.4741L92.4888 42.9506L91.9266 43.7228L90.8456 45.3351L90.2957 46.305L89.7398 47.312L89.4432 47.8741L88.844 49.0479L88.5104 49.7151L87.6579 51.4263L87.2687 52.1923L86.5336 53.644L86.2371 54.2185L85.6934 55.2687L85.5143 55.59L85.3598 55.8803L85.3104 55.9668L85.2301 56.0965H85.2178L84.9151 55.9668L84.668 55.7629L84.532 55.6147L83.9699 54.929L83.7042 54.5089L83.2039 53.6502L83.0494 53.2672L82.8147 52.5691L82.8764 52.39L83.9575 49.6409L84.8718 47.7444L85.4154 46.7807L86.5521 44.8409L87.1946 43.871L88.5166 41.9436L89.2394 40.9923L90.7158 39.1143L91.5004 38.2062L93.0942 36.4209L93.9282 35.5807L95.6023 33.9436L96.461 33.19L98.1907 31.7382L99.0556 31.0958L100.674 30.0147L101.471 29.6378L101.774 29.6255M91.6672 11.3151L92.7421 11.8154L93.3722 12.1923L94.6942 13.0201L95.4232 13.5266L96.912 14.6139L97.6903 15.2255L100.866 17.8633L102.379 19.3027L103.862 20.7544L104.541 21.4772L105.851 22.9228L106.413 23.6147L109.026 27.1792L110.669 29.749L111.411 31.071L112.819 33.7274L113.406 35.0247L114.487 37.5761L115.216 39.8618L115.402 40.461L115.463 40.7081L115.655 41.5483L115.636 41.8263L115.519 42.3205L115.34 42.5305L114.901 42.9506L114.555 43.2348L113.764 43.834L113.456 44.0131L112.881 44.2911L112.677 44.3097L112.319 44.2602L112.22 44.1181L112.066 43.7475V43.4386L111.917 42.5181L111.683 41.6718L111.503 41.1653L111.12 40.0903L110.88 39.4911L110.373 38.2556L110.083 37.607L108.853 34.9382L108.186 33.6471L107.513 32.3745L107.179 31.7876L106.512 30.6448L106.197 30.1506L104.541 27.8278L103.225 26.1846L102.503 25.3568L99.4324 22.0208L97.8633 20.532L96.3004 19.0927L95.5591 18.4625L94.1197 17.2826L93.471 16.8131L92.2417 15.9792L91.7413 15.7197L91.2656 15.4911L91.0618 15.4232L90.6788 15.3243H90.5243L89.8386 15.6394L89.0726 16.1336L87.5405 17.2579L85.7676 18.6541L85.156 19.1544L83.9328 20.1614L83.3583 20.6556L82.2402 21.6317L81.7645 22.0703L80.8749 22.8981L80.5598 23.2255L80.0286 23.8124L79.9359 23.9792L79.5591 24.5413L79.2873 24.7514L79.1143 24.7822L78.7313 24.7946L78.4656 24.7266L77.8788 24.5537L77.4772 24.4054L76.1614 23.695L75.8587 23.4355L75.766 23.312L75.6178 23.071V22.9722L75.7598 22.5768L75.9946 22.2247L76.1737 22.0023L77.0386 21.0324L77.6564 20.4394L79.0031 19.1792L79.7938 18.4934L81.4309 17.0911L82.2958 16.3931L84.044 15.0093L84.8903 14.373L86.5583 13.1498L87.2996 12.6494L88.7019 11.7351L89.2456 11.451L89.7521 11.1915L89.9498 11.1174L90.3205 11H90.4378M56.0842 21.7243L60.5444 22.2494L63.522 22.7931L64.9861 23.1637L67.9081 23.9606L69.3351 24.4425L72.1583 25.4618L73.5174 26.0548L76.1984 27.2842L77.4649 27.9699L79.9544 29.3846L81.1035 30.1568L83.3521 31.7382L84.3714 32.5846L86.3297 34.3081L87.1822 35.2224L87.9235 36.0564L88.1768 36.4641L88.1892 36.6494L88.1398 37.0263L88.0039 37.261L87.6641 37.7737L87.3861 38.1382L86.2556 39.6394L82.6788 36.4517L80.1274 34.3946L78.2865 33.1097L77.2981 32.5104L75.2842 31.349L74.2216 30.8178L72.0471 29.7861L70.9104 29.3228L68.6062 28.4332L67.4077 28.0378L64.9861 27.2903L63.732 26.9691L61.2116 26.3761L59.9143 26.1351L57.3073 25.6965L52.7112 25.1591L51.173 28.6432L50.4873 30.3174L49.9992 31.6209L49.7583 32.3066L49.2826 33.6965L49.0726 34.3637L48.6649 35.6672L48.5104 36.2355L48.2633 37.1498L48.1521 37.5328L47.9421 38.2371L47.8432 38.5274L47.4726 39.4973L47.2687 39.7815L46.8301 40.2263L46.5336 40.3375L45.8788 40.4919L45.4093 40.5413L44.2664 40.6154L43.8216 40.5537L43.7228 40.4178L43.6054 40.0656L43.6301 39.7382L43.7351 38.966L43.8402 38.3792L44.5506 35.3459L45.2301 33.0726L45.6502 31.8865L46.5274 29.4958L47.0093 28.3344L48.01 26.0548L48.529 25.0293L50.3946 21.329M95.2625 14.8672L94.8672 15.0587L94.688 15.2255L94.3668 15.5961L94.2927 15.8247L94.2494 16.2015L94.3791 16.2633L94.7251 16.3004L95.0278 16.183L95.7135 15.7444L96.0039 15.3737V15.207L95.7815 14.8301L95.4602 14.7931L95.2625 14.8672Z" fill="#D5D5D5"/>
<path d="M85.3235 163.766L85.5026 164.205V164.371L85.3235 164.643L84.8849 164.822H84.7119L84.4463 164.643L84.3351 164.526L84.2671 164.205V164.032L84.4463 163.766L84.8849 163.587H85.0517M62.244 80.5536L61.3173 80.7018L59.3467 81.091L58.3521 81.3011L56.3382 81.8015L55.3374 82.0671L54.1081 82.4501L54.6826 82.2463L57.4996 81.4555L58.9266 81.1528L61.7806 80.6092L62.4231 80.5289M70.559 80.1459L70.349 80.4795L69.9351 80.9613L69.7312 81.1713L69.3729 81.369L69.2123 81.4308L68.9776 81.332L68.8231 80.8069V80.7018L68.6934 80.5289L68.6069 80.4486L68.3165 80.325L67.9891 80.2138L67.3961 80.1768L68.4154 80.1397L69.2864 80.0594L69.6509 80.0038L70.3243 79.874L70.559 79.7999L70.7814 79.7073M70.7258 77.8849L70.8741 78.1999L70.9915 78.7127L71.0223 78.9536V78.9598L70.9853 78.725L70.905 78.4717L70.522 77.471M71.3127 75.21V75.2161L71.2138 75.1667M21.2617 54.2308L21.3791 55.9914L21.4532 56.8934L21.6942 58.7775L21.9598 60.6741L22.5219 63.3119L21.9598 60.6864L21.6942 58.7961L21.4532 56.9181L21.3791 56.0223L21.2617 54.2679V53.4771M23.844 49.2455L23.9119 49.2146L24.2826 49.0231L25.5428 48.4362M42.7907 43.4447L40.122 43.8277L39.4857 43.9266L38.3243 44.149L37.7683 44.2601L36.8231 44.4949L36.3845 44.6061L35.7297 44.8408L35.1552 45.1806L35.0687 45.2795L34.7598 45.4648L34.5868 45.5574L34.142 45.7119L32.5791 45.9652L32.3073 45.9775L31.4486 46.169L30.9729 46.2864L29.8177 46.6632L26.0185 48.22L28.125 47.2439L30.6949 46.2184L31.986 45.7922L34.5745 44.9829L35.8779 44.6555L38.4849 44.0625L39.8069 43.8462L42.4447 43.4694L43.5629 43.3768M54.6455 43.593L56.0416 43.803L58.0123 44.1119L59.0934 44.3034L59.5258 44.3961L60.3227 44.5876L60.6254 44.6864H60.6316L60.3474 44.6061L59.4208 44.3961L58.9204 44.291L57.7528 44.081L57.1474 43.9822L55.8193 43.7845L54.4787 43.5991L52.366 43.3829M95.7822 14.83L96.0046 15.2069V15.3737L95.7142 15.7443L95.0285 16.1829L94.7258 16.3003L94.3799 16.2632L94.2501 16.2015L94.2934 15.8246L94.3675 15.5961L94.6888 15.2254L94.8679 15.0586L95.2633 14.8671L95.461 14.793L95.7822 14.83Z" fill="#D5D5D5"/>
</g>
<defs>
<clipPath id="clip0_1324_1498">
<rect width="160" height="160" fill="white" transform="translate(11 11)"/>
</clipPath>
</defs>
</svg>
