<svg width="180" height="180" viewBox="0 0 180 180" fill="none" xmlns="http://www.w3.org/2000/svg">
<g clip-path="url(#clip0_1324_1494)">
<path fill-rule="evenodd" clip-rule="evenodd" d="M85.1159 10.9558C44.5361 16.8555 28.4873 65.1694 57.8805 92.9469C85.1679 118.734 130.093 104.344 137.578 67.4184C143.844 36.5094 115.937 6.4747 85.1159 10.9558ZM87.3601 15.805C54.9599 18.315 37.0129 55.1698 55.1262 81.9994C74.9731 111.396 119.405 105.626 131.162 72.1245C141.198 43.5296 117.801 13.447 87.3601 15.805ZM55.0333 42.4017L53.2012 42.5527L52.3381 45.046C51.2981 48.0499 50.9712 47.7581 54.976 47.402C64.2475 46.5778 74.05 49.1225 81.9722 54.4109C83.395 55.3604 84.6444 56.1055 84.7489 56.0665C85.6226 55.7418 88.1359 52.8671 87.8483 52.5212C84.3534 48.3172 71.141 43.1782 61.9093 42.4325C58.3959 42.1486 58.115 42.1473 55.0333 42.4017ZM117.645 42.4294C99.6712 44.0128 83.8364 55.7199 77.31 72.2502C76.7811 73.5896 76.7811 73.5896 77.3842 73.4485C77.7158 73.371 79.0317 73.0948 80.3085 72.8349L82.6296 72.3623L83.9764 69.7912C92.153 54.1816 110.382 45.04 127.988 47.7207C130.131 48.0473 130.086 48.1519 129.075 45.2242C128.215 42.7341 128.215 42.7341 127.128 42.5878C124.9 42.2881 120.149 42.2087 117.645 42.4294ZM39.4394 46.1937C5.34061 60.7424 0.502321 107.444 30.8675 128.934C35.4325 132.165 42.722 135.602 42.3735 134.359C42.2805 134.027 42.0057 132.732 41.763 131.481C41.3216 129.207 41.3216 129.207 39.6601 128.389C7.33929 112.478 7.65876 67.9698 40.2137 51.257C41.1811 50.7604 42.2457 47.9158 42.4598 45.2545C42.486 44.9279 42.1918 45.0194 39.4394 46.1937ZM138.958 45.8168C139.057 45.9757 139.372 47.3166 139.66 48.7967C139.947 50.2767 140.208 51.509 140.24 51.5354C140.272 51.5618 140.951 51.9097 141.75 52.3085C164.182 63.5119 171.354 93.9262 156.458 114.69C152.548 120.14 144.648 126.902 140.444 128.396C140.195 128.485 139.022 133.771 139.164 134.167C139.302 134.552 145.501 131.393 148.218 129.553C176.622 110.322 176.346 68.7274 147.69 50.0005C144.394 47.8464 138.452 44.9996 138.958 45.8168ZM93.4539 60.7716C91.3887 62.6255 91.3578 62.7652 92.642 64.463C93.9436 66.1845 96.0165 69.5545 96.6774 71.0246C97.1539 72.0839 102.941 73.8025 102.936 72.8834C102.93 71.3366 95.9085 59.5544 94.9937 59.5544C94.8926 59.5544 94.1997 60.1021 93.4539 60.7716ZM86.172 74.0619C77.2316 74.9639 66.9237 79.116 61.0586 84.1778L60.0427 85.0545L61.7543 86.8037L63.4658 88.5529L65.842 86.8355C81.2313 75.7136 101.348 76.2518 117.44 88.216C117.816 88.4951 118.116 88.3016 119.549 86.8587C121.487 84.9061 121.519 85.0582 118.738 82.999C109.77 76.361 97.301 72.939 86.172 74.0619ZM100.667 83.3435C101.055 85.8278 101.153 92.1814 100.843 94.8355C100.414 98.5195 105.424 98.1689 105.925 94.4802C106.332 91.4877 105.99 84.3009 105.42 83.8852C105.002 83.5799 101.104 82.2232 100.645 82.2232C100.561 82.2232 100.571 82.7275 100.667 83.3435ZM76.3547 83.6055L74.1942 84.4353L74.0104 86.3914C73.7065 89.6294 73.9972 95.16 74.4902 95.5201C77.5027 97.7192 79.4695 97.3832 79.14 94.7256C78.853 92.4137 78.9794 84.9775 79.3311 83.4753C79.5553 82.5179 79.1399 82.5361 76.3547 83.6055ZM52.4632 92.9617C28.9287 124.035 51.5569 169.198 90.6605 169.198C129.724 169.198 151.931 125.421 129.144 93.3333L127.955 91.659L126.17 93.4277L124.385 95.1964L126.073 97.6821C145.292 125.982 124.976 164.068 90.6605 164.068C56.4226 164.068 36.0691 125.923 55.2427 97.69L56.9361 95.1964L55.1748 93.4514L53.4137 91.7067L52.4632 92.9617ZM76.9567 106.843C81.9951 123.443 101.071 136.947 120.231 137.48C127.676 137.687 127.975 137.613 128.843 135.334C130.107 132.019 130.1 131.775 128.762 132.123C113.355 136.12 92.4091 125.784 83.8732 109.973L82.6304 107.67L79.7095 106.98C76.8036 106.293 76.7896 106.292 76.9567 106.843ZM99.7575 107.332C97.2374 107.849 97.2374 107.849 96.3315 109.599C95.4798 111.246 93.5392 114.276 92.1504 116.13C91.3982 117.133 91.6004 117.553 93.696 119.344C95.2778 120.696 94.9697 120.908 98.0501 116.35C99.7969 113.765 102.938 107.77 102.938 107.021C102.938 106.68 102.933 106.681 99.7575 107.332ZM82.3463 125.224C74.906 130.41 68.0693 132.426 57.8993 132.433L51.5407 132.437L51.9869 133.887C53.2118 137.869 52.8561 137.703 59.7322 137.499C70.1462 137.191 80.4041 133.578 87.4922 127.723C88.1958 127.141 85.6973 123.447 84.7275 123.634C84.6507 123.649 83.5793 124.364 82.3463 125.224Z" fill="#D4D4D4"/>
</g>
<defs>
<clipPath id="clip0_1324_1494">
<rect width="160" height="160" fill="white" transform="translate(10 10)"/>
</clipPath>
</defs>
</svg>
