<svg width="180" height="180" viewBox="0 0 180 180" fill="none" xmlns="http://www.w3.org/2000/svg">
<path d="M117.351 74.835C109.922 81.744 103.578 91.3337 100.318 104.277C98.7853 97.5921 96.4104 90.6395 92.9238 84.2669C87.2745 73.9414 78.6374 65.0547 65.9647 61.4296C71.9724 59.1862 78.4037 55.5747 84.1853 50.1658C91.6357 43.1958 97.9297 33.3124 100.88 19.7142C102.746 26.6886 105.585 34.055 109.68 40.7527C115.741 50.6677 124.626 59.2023 137.167 62.7007C130.671 65.093 123.644 68.9824 117.351 74.835Z" stroke="#D4D4D4" stroke-width="4.70458" stroke-linejoin="bevel"/>
<path d="M24.727 84.83C27.9459 81.8297 30.7501 77.8536 32.5354 72.7101C33.2708 75.1632 34.2452 77.6258 35.5096 79.942C38.0673 84.6271 41.8589 88.7703 47.2483 90.9473C44.7999 92.0915 42.2966 93.6908 39.9954 95.8484C36.7358 98.9045 33.9298 103.036 32.2493 108.476C31.3592 105.843 30.184 103.178 28.6666 100.691C25.9381 96.2177 22.0545 92.2599 16.7302 90.1591C19.4193 88.9316 22.1902 87.1944 24.727 84.83Z" stroke="#D4D4D4" stroke-width="4" stroke-linejoin="bevel"/>
<path d="M62.9292 150.569C66.1527 153.919 68.9522 158.343 70.7345 164.06C71.4695 161.327 72.4432 158.583 73.7066 156.003C76.3326 150.64 80.3016 145.842 86.0547 143.456C83.4047 142.152 80.6758 140.27 78.1892 137.671C74.9248 134.259 72.1232 129.66 70.4462 123.609C69.5567 126.54 68.3828 129.506 66.8677 132.275C64.0584 137.41 59.9852 142 54.3005 144.302C57.1945 145.697 60.2005 147.734 62.9292 150.569Z" stroke="#D4D4D4" stroke-width="4" stroke-linejoin="bevel"/>
</svg>
